<svg xmlns="http://www.w3.org/2000/svg" width="900" height="520" viewBox="0 0 900 520" font-family="-apple-system,Segoe UI,Helvetica,Arial,sans-serif">
<rect width="900" height="520" fill="#ffffff"/>
<text x="82" y="36" font-size="21" font-weight="700" fill="#111827">Frozen Prompt Guard&#8201;2 + linear head: 22.8%&#8202;&#8594;&#8202;99.9% OOD recall</text>
<text x="82" y="60" font-size="13.5" fill="#6b7280">Recall vs. false-positive rate on fresh out-of-distribution injections &#183; Wilson 95% CI &#183; pre-registered</text>
<rect x="82.0" y="96.0" width="293.8" height="164.0" fill="#059669" fill-opacity="0.08"/>
<text x="228.9" y="214.1" font-size="12" font-weight="600" fill="#059669" text-anchor="middle">SHIP-GATE / SUCCESS zone</text>
<text x="228.9" y="229.1" font-size="10.5" fill="#059669" text-anchor="middle">recall &#8805; 50%, FPR &#8804; 1%</text>
<line x1="82" y1="424.0" x2="846" y2="424.0" stroke="#eef0f2" stroke-width="1"/>
<text x="73" y="428.0" font-size="12" fill="#6b7280" text-anchor="end">0</text>
<line x1="82" y1="358.4" x2="846" y2="358.4" stroke="#eef0f2" stroke-width="1"/>
<text x="73" y="362.4" font-size="12" fill="#6b7280" text-anchor="end">20</text>
<line x1="82" y1="292.8" x2="846" y2="292.8" stroke="#eef0f2" stroke-width="1"/>
<text x="73" y="296.8" font-size="12" fill="#6b7280" text-anchor="end">40</text>
<line x1="82" y1="227.2" x2="846" y2="227.2" stroke="#eef0f2" stroke-width="1"/>
<text x="73" y="231.2" font-size="12" fill="#6b7280" text-anchor="end">60</text>
<line x1="82" y1="161.6" x2="846" y2="161.6" stroke="#eef0f2" stroke-width="1"/>
<text x="73" y="165.6" font-size="12" fill="#6b7280" text-anchor="end">80</text>
<line x1="82" y1="96.0" x2="846" y2="96.0" stroke="#eef0f2" stroke-width="1"/>
<text x="73" y="100.0" font-size="12" fill="#6b7280" text-anchor="end">100</text>
<line x1="82" y1="424" x2="846" y2="424" stroke="#374151" stroke-width="1.4"/>
<line x1="82" y1="96" x2="82" y2="424" stroke="#374151" stroke-width="1.4"/>
<line x1="82.0" y1="424" x2="82.0" y2="429" stroke="#374151" stroke-width="1"/>
<text x="82.0" y="444" font-size="12" fill="#6b7280" text-anchor="middle">0</text>
<line x1="228.9" y1="424" x2="228.9" y2="429" stroke="#374151" stroke-width="1"/>
<text x="228.9" y="444" font-size="12" fill="#6b7280" text-anchor="middle">0.5</text>
<line x1="375.8" y1="424" x2="375.8" y2="429" stroke="#374151" stroke-width="1"/>
<text x="375.8" y="444" font-size="12" fill="#6b7280" text-anchor="middle">1</text>
<line x1="522.8" y1="424" x2="522.8" y2="429" stroke="#374151" stroke-width="1"/>
<text x="522.8" y="444" font-size="12" fill="#6b7280" text-anchor="middle">1.5</text>
<line x1="669.7" y1="424" x2="669.7" y2="429" stroke="#374151" stroke-width="1"/>
<text x="669.7" y="444" font-size="12" fill="#6b7280" text-anchor="middle">2</text>
<line x1="816.6" y1="424" x2="816.6" y2="429" stroke="#374151" stroke-width="1"/>
<text x="816.6" y="444" font-size="12" fill="#6b7280" text-anchor="middle">2.5</text>
<text x="464.0" y="466" font-size="13.5" fill="#374151" text-anchor="middle">False-positive rate (%)</text>
<text transform="translate(28,260.0) rotate(-90)" font-size="13.5" fill="#374151" text-anchor="middle">OOD recall (%)</text>
<line x1="375.8" y1="96" x2="375.8" y2="424" stroke="#dc2626" stroke-width="1.6" stroke-dasharray="6 4"/>
<text x="368.8" y="416.0" font-size="12" font-weight="600" fill="#dc2626" text-anchor="end">1% FPR ceiling</text>
<g stroke="#6b7280" opacity="0.75">
<line x1="155.5" y1="349.2" x2="155.5" y2="349.2" stroke-width="1.4"/>
<line x1="155.5" y1="345.2" x2="155.5" y2="353.2" stroke-width="1.2"/>
<line x1="155.5" y1="345.2" x2="155.5" y2="353.2" stroke-width="1.2"/>
<line x1="155.5" y1="358.4" x2="155.5" y2="339.4" stroke-width="1.4"/>
<line x1="151.5" y1="358.4" x2="159.5" y2="358.4" stroke-width="1.2"/>
<line x1="151.5" y1="339.4" x2="159.5" y2="339.4" stroke-width="1.2"/>
</g>
<circle cx="155.5" cy="349.2" r="6.5" fill="#6b7280"/>
<g stroke="#d97706" opacity="0.75">
<line x1="552.2" y1="97.0" x2="963.5" y2="97.0" stroke-width="1.4"/>
<line x1="552.2" y1="93.0" x2="552.2" y2="101.0" stroke-width="1.2"/>
<line x1="963.5" y1="93.0" x2="963.5" y2="101.0" stroke-width="1.2"/>
<line x1="728.5" y1="99.6" x2="728.5" y2="96.3" stroke-width="1.4"/>
<line x1="724.5" y1="99.6" x2="732.5" y2="99.6" stroke-width="1.2"/>
<line x1="724.5" y1="96.3" x2="732.5" y2="96.3" stroke-width="1.2"/>
</g>
<circle cx="728.5" cy="97.0" r="6.5" fill="#d97706"/>
<g stroke="#d97706" opacity="0.75">
<line x1="317.1" y1="96.3" x2="581.5" y2="96.3" stroke-width="1.4"/>
<line x1="317.1" y1="92.3" x2="317.1" y2="100.3" stroke-width="1.2"/>
<line x1="581.5" y1="92.3" x2="581.5" y2="100.3" stroke-width="1.2"/>
<line x1="434.6" y1="98.3" x2="434.6" y2="96.0" stroke-width="1.4"/>
<line x1="430.6" y1="98.3" x2="438.6" y2="98.3" stroke-width="1.2"/>
<line x1="430.6" y1="96.0" x2="438.6" y2="96.0" stroke-width="1.2"/>
</g>
<circle cx="434.6" cy="96.3" r="6.5" fill="#d97706"/>
<g stroke="#059669" opacity="0.75">
<line x1="199.5" y1="96.3" x2="434.6" y2="96.3" stroke-width="1.4"/>
<line x1="199.5" y1="92.3" x2="199.5" y2="100.3" stroke-width="1.2"/>
<line x1="434.6" y1="92.3" x2="434.6" y2="100.3" stroke-width="1.2"/>
<line x1="287.7" y1="98.3" x2="287.7" y2="96.0" stroke-width="1.4"/>
<line x1="283.7" y1="98.3" x2="291.7" y2="98.3" stroke-width="1.2"/>
<line x1="283.7" y1="96.0" x2="291.7" y2="96.0" stroke-width="1.2"/>
</g>
<circle cx="287.7" cy="96.3" r="13" fill="none" stroke="#059669" stroke-width="1.6" opacity="0.45"/>
<circle cx="287.7" cy="96.3" r="8.5" fill="#059669"/>
<text x="169.5" y="350.2" font-size="12.5" font-weight="600" fill="#374151" text-anchor="start">PG2 native head</text>
<text x="169.5" y="365.2" font-size="11.5" font-weight="400" fill="#6b7280" text-anchor="start">22.8% recall @ 0.25% FPR</text>
<line x1="243.6" y1="135.4" x2="284.8" y2="99.3" stroke="#059669" stroke-width="1" opacity="0.5"/>
<text x="105.5" y="148.5" font-size="13" font-weight="700" fill="#059669" text-anchor="start">Phase 5a-ter — SUCCESS</text>
<text x="105.5" y="163.5" font-size="11.5" font-weight="400" fill="#6b7280" text-anchor="start">99.9% [99.3, 100] @ 0.7% FPR</text>
<text x="105.5" y="178.5" font-size="11" font-weight="400" fill="#9ca3af" text-anchor="start">AUC 0.999 · fresh disjoint data</text>
<text x="455.2" y="141.9" font-size="12.5" font-weight="600" fill="#d97706" text-anchor="start">Phase 5a-bis — NULL</text>
<text x="455.2" y="156.9" font-size="11.5" font-weight="400" fill="#6b7280" text-anchor="start">99.9% @ 1.2% [0.8, 1.7]</text>
<text x="455.2" y="171.9" font-size="11" font-weight="400" fill="#9ca3af" text-anchor="start">CI included 1% — held NULL</text>
<text x="840.1" y="135.4" font-size="12.5" font-weight="600" fill="#d97706" text-anchor="end">Phase 5a — NULL</text>
<text x="840.1" y="150.4" font-size="11.5" font-weight="400" fill="#6b7280" text-anchor="end">99.7% @ 2.2% FPR</text>
</svg>